<svg width="10" height="17" viewBox="0 0 10 17" fill="none" xmlns="http://www.w3.org/2000/svg">
<path d="M7.17337 0.5H2.04001C1.18949 0.5 0.5 1.21634 0.5 2.1V14.9C0.5 15.7837 1.18949 16.5 2.04001 16.5H7.17337C8.0239 16.5 8.71338 15.7837 8.71338 14.9V2.1C8.71338 1.21634 8.0239 0.5 7.17337 0.5Z" stroke="#7A7F85" stroke-linecap="round" stroke-linejoin="round"/>
<path d="M2.04004 0.5H2.81004C2.87812 0.5 2.9434 0.528095 2.99154 0.578105C3.03967 0.628115 3.06671 0.695942 3.06671 0.766667C3.06671 0.908115 3.1208 1.04377 3.21706 1.14379C3.31333 1.24381 3.4439 1.3 3.58005 1.3H5.63339C5.76954 1.3 5.90011 1.24381 5.99638 1.14379C6.09265 1.04377 6.14673 0.908115 6.14673 0.766667C6.14673 0.695942 6.17377 0.628115 6.22191 0.578105C6.27004 0.528095 6.33532 0.5 6.4034 0.5H7.1734" stroke="#7A7F85" stroke-linecap="round" stroke-linejoin="round"/>
</svg>
