<svg width="9" height="9" viewBox="0 0 9 9" fill="none" xmlns="http://www.w3.org/2000/svg">
<path d="M0.9 2.52H1.02857C1.52357 2.52 1.92857 2.898 1.92857 3.36V7.56C1.92857 8.022 1.52357 8.4 1.02857 8.4H0.9C0.405 8.4 0 8.022 0 7.56V3.36C0 2.898 0.405 2.52 0.9 2.52ZM4.5 0C4.995 0 5.4 0.378 5.4 0.84V7.56C5.4 8.022 4.995 8.4 4.5 8.4C4.005 8.4 3.6 8.022 3.6 7.56V0.84C3.6 0.378 4.005 0 4.5 0ZM8.1 4.8C8.595 4.8 9 5.178 9 5.64V7.56C9 8.022 8.595 8.4 8.1 8.4C7.605 8.4 7.2 8.022 7.2 7.56V5.64C7.2 5.178 7.605 4.8 8.1 4.8Z" fill="#7A7F85"/>
</svg>
