<svg width="20" height="25" viewBox="0 0 20 25" fill="none" xmlns="http://www.w3.org/2000/svg">
<path d="M10 12.0763C13.1562 12.0763 15.7143 9.37326 15.7143 6.03814C15.7143 2.70301 13.1562 0 10 0C6.84375 0 4.28571 2.70301 4.28571 6.03814C4.28571 9.37326 6.84375 12.0763 10 12.0763ZM14 13.5858H13.2545C12.2634 14.067 11.1607 14.3406 10 14.3406C8.83929 14.3406 7.74107 14.067 6.74554 13.5858H6C2.6875 13.5858 0 16.4256 0 19.9258V21.8882C0 23.1383 0.959821 24.1525 2.14286 24.1525H17.8571C19.0402 24.1525 20 23.1383 20 21.8882V19.9258C20 16.4256 17.3125 13.5858 14 13.5858Z" fill="#BEBEBE"/>
</svg>
