<svg width="80" height="19" viewBox="0 0 80 19" fill="none" xmlns="http://www.w3.org/2000/svg">
<g clip-path="url(#clip0_350_12443)">
<path d="M24.9828 2.93681C24.8362 2.36913 24.5504 1.85161 24.1537 1.43578C23.757 1.01994 23.2632 0.720312 22.7217 0.566724C20.739 0 12.7603 0 12.7603 0C12.7603 0 4.78123 0.0171983 2.79889 0.583922C2.25737 0.737535 1.7637 1.03718 1.36701 1.45301C0.970333 1.86884 0.68449 2.38635 0.537952 2.95401C-0.0617359 6.64672 -0.294392 12.2732 0.554358 15.818C0.700897 16.3856 0.986739 16.9032 1.38342 17.319C1.7801 17.7348 2.27378 18.0345 2.8153 18.1881C4.7978 18.7548 12.7767 18.7548 12.7767 18.7548C12.7767 18.7548 20.7556 18.7548 22.7381 18.1881C23.2796 18.0345 23.7733 17.7348 24.17 17.319C24.5667 16.9032 24.8525 16.3856 24.999 15.818C25.6314 12.1202 25.8264 6.49718 24.9826 2.93697" fill="#FF0000"/>
<path d="M10.2207 13.3962L16.8398 9.37739L10.2207 5.3584V13.3962Z" fill="white"/>
<path d="M76.7562 5.44471C77.6245 5.44471 78.2798 5.61636 78.7386 5.94264C79.1973 6.26908 79.5252 6.78421 79.7217 7.48852C79.9183 8.19267 80.0002 9.15429 80.0002 10.3909V12.4005H75.7895V13.0187L75.8552 14.719C75.9042 15.0969 75.9863 15.3717 76.1172 15.5434C76.2484 15.7152 76.4613 15.801 76.7398 15.801C77.1167 15.801 77.3789 15.6466 77.5098 15.3375C77.6573 15.0282 77.7228 14.5129 77.7392 13.8088L79.9183 13.9462C79.9347 14.0493 79.9347 14.1867 79.9347 14.3583C79.9347 15.4403 79.6561 16.2477 79.0827 16.78C78.5092 17.3123 77.7228 17.5872 76.6906 17.5872C75.4455 17.5872 74.5772 17.1751 74.0856 16.3679C73.5942 15.5606 73.332 14.2895 73.332 12.5894V10.5112C73.3877 7.59155 73.8775 5.45323 76.7562 5.44471ZM46.4625 5.66796V14.2725C46.4625 14.7878 46.5116 15.1657 46.6263 15.3889C46.8589 15.8664 47.4619 15.7443 47.7895 15.5091C47.9787 15.3751 48.1312 15.1916 48.2319 14.9768V5.6678H50.7386V17.3982H48.7725L48.5595 15.9555H48.5105C47.9698 17.0375 47.1669 17.587 46.102 17.587C44.463 17.5828 44.0619 16.3448 43.9664 15.0875L43.9602 14.9989C43.9484 14.8085 43.9414 14.6178 43.9394 14.427V5.66796H46.4625ZM59.3894 5.66796V14.2725C59.3894 14.7878 59.4384 15.1657 59.5531 15.3889C59.7859 15.8664 60.3888 15.7443 60.7164 15.5091C60.9056 15.3751 61.058 15.1916 61.1587 14.9768V5.6678H63.6655V17.3982H61.6994L61.4864 15.9555H61.4373C60.8967 17.0375 60.0938 17.587 59.0289 17.587C57.3898 17.5828 56.9888 16.3448 56.8933 15.0875L56.887 14.9989C56.8752 14.8085 56.8683 14.6178 56.8663 14.427V5.66796H59.3894ZM39.188 5.44471C40.0072 5.44471 40.6789 5.61636 41.1705 5.97704C41.6619 6.33771 42.0388 6.8874 42.2681 7.64298C42.4975 8.39872 42.6122 9.41194 42.6122 10.6658V12.366C42.6122 13.6198 42.4975 14.616 42.2681 15.3716C42.0388 16.1275 41.6783 16.677 41.1705 17.0377C40.6627 17.3811 39.9744 17.57 39.1225 17.57C38.2377 17.5872 37.5495 17.3983 37.0417 17.0549C36.5339 16.6942 36.1733 16.1445 35.9605 15.3889C35.7473 14.6332 35.6491 13.637 35.6491 12.3833V10.6828C35.6491 9.42898 35.7637 8.39855 36.0095 7.64281C36.2553 6.87004 36.632 6.32035 37.1564 5.97704C37.6806 5.6334 38.3523 5.44455 39.188 5.44455M67.5977 0.73877V6.92163H67.6141C67.8434 6.47513 68.1383 6.11446 68.548 5.83961C68.9305 5.56997 69.3812 5.42644 69.8422 5.42751C70.4484 5.42751 70.9072 5.59917 71.2513 5.92544C71.5953 6.26908 71.8411 6.80141 71.9884 7.53995C72.1314 8.2554 72.2127 9.24487 72.2177 10.4926L72.2178 10.6143V12.4691C72.2178 14.2037 72.0048 15.4919 71.6116 16.3163C71.2022 17.1407 70.5795 17.5529 69.7275 17.5529C69.2525 17.5529 68.8264 17.4327 68.4333 17.2095C68.0856 16.9971 67.7973 16.6925 67.5973 16.3263L67.5648 16.2647H67.5158L67.2536 17.3811H65.1728V0.738933L67.5977 0.73877ZM57.5706 1.33989V3.46936H55.0803V17.3982H52.6228V3.46953H50.1161V1.34005L57.5706 1.33989ZM30.5536 1.33989L30.5552 1.34644C30.5791 1.45799 30.9103 3.00174 31.2747 4.80035L31.3034 4.94285L31.3469 5.15823L31.3759 5.30286L31.3905 5.37542L31.4195 5.52087L31.4341 5.59376L31.463 5.7397L31.5052 5.95312C31.7513 7.19861 31.9861 8.44769 32.1266 9.34331H32.1922C32.3267 8.53991 32.5222 7.51178 32.7306 6.46203L32.7853 6.18784C32.8128 6.05058 32.8403 5.91332 32.8681 5.77639L32.9109 5.56395C33.194 4.17283 33.4855 2.78362 33.7855 1.3964L33.7902 1.37429L33.7977 1.33989H36.3044L33.4044 12.1773V17.3811H30.9305V12.1943H30.9141L28.0469 1.33973L30.5536 1.33989ZM39.1388 7.26511C38.7947 7.26511 38.5653 7.45412 38.418 7.84919C38.2705 8.2441 38.205 8.84522 38.205 9.68695V13.3451C38.205 14.2039 38.2705 14.8392 38.4016 15.2173C38.5327 15.595 38.7784 15.784 39.1388 15.784C39.4828 15.784 39.7286 15.595 39.8761 15.2173C40.0236 14.8392 40.0891 14.2039 40.0891 13.3451V9.68679C40.0891 8.84522 40.0234 8.2269 39.8761 7.84903C39.7286 7.45412 39.4828 7.26511 39.1388 7.26511ZM68.04 7.60874C67.8403 7.80202 67.6983 8.04034 67.6138 8.33828L67.5977 8.39872V15.0625C67.8008 15.4231 68.0892 15.6636 68.597 15.6808C68.8592 15.6808 69.072 15.5778 69.2361 15.3717C69.3998 15.1657 69.5145 14.822 69.58 14.3411C69.643 13.8796 69.6758 13.2437 69.6783 12.4339V10.8032C69.6783 9.8758 69.6455 9.17166 69.5964 8.67356C69.5308 8.17547 69.4491 7.8148 69.3016 7.60874C69.0164 7.17928 68.4005 7.18452 68.04 7.60874ZM76.7072 7.21368C76.4286 7.23087 76.2319 7.3167 76.1172 7.47132C75.9863 7.64298 75.9042 7.90062 75.8552 8.27849C75.8069 8.64867 75.7903 9.94263 75.7895 9.99439V10.8376H77.6245V10.094V10.1082C77.6234 10.3682 77.6183 9.95737 77.607 9.45305L77.6055 9.38524C77.5952 8.94202 77.5802 8.44786 77.5591 8.27849C77.5098 7.88342 77.4278 7.60858 77.2969 7.45412C77.1658 7.2995 76.9692 7.21368 76.707 7.21368" fill="#060505"/>
</g>
<defs>
<clipPath id="clip0_350_12443">
<rect width="80" height="19" fill="white"/>
</clipPath>
</defs>
</svg>
