<svg width="24" height="24" viewBox="0 0 24 24" fill="none" xmlns="http://www.w3.org/2000/svg">
<path fill-rule="evenodd" clip-rule="evenodd" d="M10.5275 0.613782C10.9413 0.21772 11.4685 0 12.0137 0C12.5589 0 13.0861 0.21772 13.5 0.613782L20.7326 7.53061L23.5716 10.0655C23.6887 10.1701 23.7862 10.2993 23.8585 10.4459C23.9308 10.5925 23.9765 10.7535 23.993 10.9198C24.0096 11.0862 23.9966 11.2545 23.9548 11.4152C23.9131 11.5759 23.8434 11.7258 23.7497 11.8565C23.656 11.9871 23.5401 12.0959 23.4088 12.1766C23.2774 12.2573 23.1331 12.3083 22.9841 12.3268C22.835 12.3452 22.6842 12.3307 22.5402 12.2841C22.3962 12.2376 22.2618 12.1598 22.1447 12.0552L21.1459 11.1635V21.2509C21.1459 21.9266 20.9053 22.5746 20.4772 23.0523C20.049 23.5301 19.4683 23.7985 18.8628 23.7985H14.2968V17.4294C14.2968 16.7538 14.0562 16.1058 13.6281 15.628C13.1999 15.1502 12.6192 14.8818 12.0137 14.8818C11.4082 14.8818 10.8275 15.1502 10.3994 15.628C9.97124 16.1058 9.73071 16.7538 9.73071 17.4294V23.7985H5.16464C4.55914 23.7985 3.97844 23.5301 3.55029 23.0523C3.12214 22.5746 2.88161 21.9266 2.88161 21.2509V11.1623L1.88278 12.0539C1.7665 12.1647 1.63145 12.2483 1.48566 12.2998C1.33987 12.3512 1.1863 12.3695 1.03408 12.3534C0.881848 12.3373 0.734063 12.2873 0.599494 12.2063C0.464924 12.1253 0.346312 12.0149 0.250699 11.8818C0.155086 11.7486 0.0844206 11.5954 0.0428971 11.4312C0.00137356 11.2669 -0.0101615 11.0951 0.00897658 10.9258C0.0281146 10.7565 0.0775356 10.5932 0.154306 10.4457C0.231077 10.2981 0.333632 10.1693 0.455885 10.0668L3.29484 7.53188L10.5275 0.613782Z" fill="#BEBEBE"/>
</svg>
