<svg width="18" height="19" viewBox="0 0 18 19" fill="none" xmlns="http://www.w3.org/2000/svg">
<path d="M14.25 13.4583V15.0416H5.25V13.4583C5.25 13.4583 5.25 10.2916 9.75 10.2916C14.25 10.2916 14.25 13.4583 14.25 13.4583ZM12 6.33325C12 5.86352 11.868 5.40434 11.6208 5.01377C11.3736 4.62321 11.0222 4.3188 10.611 4.13904C10.1999 3.95928 9.7475 3.91225 9.31105 4.00389C8.87459 4.09553 8.47368 4.32172 8.15901 4.65387C7.84434 4.98602 7.63005 5.40921 7.54323 5.86991C7.45642 6.33062 7.50097 6.80815 7.67127 7.24213C7.84157 7.6761 8.12996 8.04702 8.49997 8.30799C8.86998 8.56896 9.30499 8.70825 9.75 8.70825C10.3467 8.70825 10.919 8.45803 11.341 8.01263C11.7629 7.56723 12 6.96314 12 6.33325ZM14.4 10.3391C14.81 10.7383 15.1405 11.2198 15.3723 11.7553C15.6041 12.2908 15.7325 12.8698 15.75 13.4583V15.0416H18V13.4583C18 13.4583 18 10.727 14.4 10.3391ZM13.5 3.95825C13.2734 3.9584 13.0482 3.99579 12.8325 4.06909C13.2713 4.73327 13.5065 5.52352 13.5065 6.33325C13.5065 7.14298 13.2713 7.93323 12.8325 8.59742C13.0482 8.67072 13.2734 8.70811 13.5 8.70825C14.0967 8.70825 14.669 8.45803 15.091 8.01263C15.5129 7.56723 15.75 6.96314 15.75 6.33325C15.75 5.70336 15.5129 5.09927 15.091 4.65387C14.669 4.20848 14.0967 3.95825 13.5 3.95825ZM6 7.91659H3.75V5.54159H2.25V7.91659H0V9.49992H2.25V11.8749H3.75V9.49992H6V7.91659Z" fill="black" fill-opacity="0.63"/>
</svg>
