<svg width="14" height="18" viewBox="0 0 14 18" fill="none" xmlns="http://www.w3.org/2000/svg">
<path d="M2.57228 7.27129C1.9504 9.7026 5.40783 10.3213 4.59162 12.0343C3.77497 13.7469 1.94735 13.4045 2.15129 15.1171C2.35567 16.8301 4.77416 16.8542 6.97605 15.8224C11.3794 13.7584 12.2982 9.24995 10.3055 7.27129C7.85645 4.83998 3.19415 4.83998 2.57228 7.27129Z" stroke="#24A22F" stroke-width="1.5"/>
<path d="M10.2608 5.38196C10.6303 5.66265 11.3069 5.48343 11.772 4.98166C12.2371 4.47989 12.3146 3.84558 11.9451 3.56489C11.5755 3.2842 10.8989 3.46342 10.4338 3.96519C9.96874 4.46696 9.89126 5.10127 10.2608 5.38196Z" fill="#24A22F"/>
<path d="M8.29915 4.38942C8.73633 4.57396 9.33863 4.24232 9.64442 3.64868C9.95021 3.05504 9.8437 2.42419 9.40652 2.23964C8.96934 2.05509 8.36704 2.38673 8.06125 2.98038C7.75546 3.57402 7.86197 4.20487 8.29915 4.38942Z" fill="#24A22F"/>
<path d="M6.09594 4.09842C6.57567 4.14407 7.02588 3.65298 7.10152 3.00156C7.17715 2.35013 6.84956 1.78505 6.36983 1.7394C5.8901 1.69376 5.43988 2.18484 5.36425 2.83626C5.28862 3.48769 5.6162 4.05278 6.09594 4.09842Z" fill="#24A22F"/>
<path d="M2.73306 3.77111C3.41299 3.54709 3.69669 2.70018 3.36673 1.8795C3.03676 1.05882 2.21809 0.575135 1.53816 0.799163C0.858233 1.02319 0.574532 1.87009 0.904496 2.69078C1.23446 3.51146 2.05314 3.99514 2.73306 3.77111Z" stroke="#24A22F" stroke-width="1.5"/>
<path d="M11.8466 6.81748C12.1567 7.15199 12.8574 7.08185 13.4117 6.66082C13.9659 6.23978 14.1639 5.62729 13.8538 5.29278C13.5438 4.95826 12.8431 5.0284 12.2888 5.44944C11.7345 5.87047 11.5366 6.48296 11.8466 6.81748Z" fill="#24A22F"/>
</svg>
