<svg width="22" height="29" viewBox="0 0 22 29" fill="none" xmlns="http://www.w3.org/2000/svg">
<path d="M2.16628 8.70002H2.47575C3.66721 8.70002 4.64203 10.005 4.64203 11.6V26.1001C4.64203 27.6951 3.66721 29.0001 2.47575 29.0001H2.16628C0.974828 29.0001 0 27.6951 0 26.1001V11.6C0 10.005 0.974828 8.70002 2.16628 8.70002ZM10.8314 0C12.0229 0 12.9977 1.305 12.9977 2.90001V26.1001C12.9977 27.6951 12.0229 29.0001 10.8314 29.0001C9.63996 29.0001 8.66513 27.6951 8.66513 26.1001V2.90001C8.66513 1.305 9.63996 0 10.8314 0ZM19.4965 16.5715C20.688 16.5715 21.6628 17.8765 21.6628 19.4715V26.1001C21.6628 27.6951 20.688 29.0001 19.4965 29.0001C18.3051 29.0001 17.3303 27.6951 17.3303 26.1001V19.4715C17.3303 17.8765 18.3051 16.5715 19.4965 16.5715Z" fill="#BEBEBE"/>
</svg>
