<svg width="14" height="12" viewBox="0 0 14 12" fill="none" xmlns="http://www.w3.org/2000/svg">
<path d="M12.2652 6.48375C12.3221 6.645 12.4971 6.75 12.6852 6.75V6.74625C12.7534 6.7468 12.8207 6.73361 12.8818 6.70774C12.9429 6.68187 12.996 6.64404 13.0369 6.59732C13.0778 6.55059 13.1053 6.49628 13.1171 6.43877C13.129 6.38126 13.1249 6.32216 13.1052 6.26625C13.0917 6.22875 11.6435 2.25 6.99816 2.25C2.35279 2.25 0.905976 6.22875 0.892851 6.27C0.822851 6.46875 0.954102 6.675 1.18598 6.735C1.41785 6.795 1.66285 6.6825 1.73285 6.48375C1.78098 6.34125 3.01473 3 6.99904 3C10.9825 3 12.2114 6.33863 12.2652 6.48375ZM4.37535 6.75C4.37535 6.15326 4.65191 5.58097 5.1442 5.15901C5.63648 4.73705 6.30416 4.5 7.00035 4.5C7.69654 4.5 8.36422 4.73705 8.85651 5.15901C9.34879 5.58097 9.62535 6.15326 9.62535 6.75C9.62535 7.34674 9.34879 7.91903 8.85651 8.34099C8.36422 8.76295 7.69654 9 7.00035 9C6.30416 9 5.63648 8.76295 5.1442 8.34099C4.65191 7.91903 4.37535 7.34674 4.37535 6.75Z" fill="#7A7F85"/>
</svg>
