<svg width="24" height="22" viewBox="0 0 24 22" fill="none" xmlns="http://www.w3.org/2000/svg">
<path fill-rule="evenodd" clip-rule="evenodd" d="M10.5275 0.544285C10.9413 0.193068 11.4685 0 12.0137 0C12.5589 0 13.0861 0.193068 13.5 0.544285L20.7326 6.67794L23.5716 8.92581C23.6887 9.01853 23.7862 9.13315 23.8585 9.26314C23.9308 9.39313 23.9765 9.53594 23.993 9.68342C24.0096 9.8309 23.9966 9.98015 23.9548 10.1227C23.9131 10.2652 23.8434 10.3982 23.7497 10.514C23.656 10.6299 23.5401 10.7263 23.4088 10.7979C23.2774 10.8694 23.1331 10.9147 22.9841 10.931C22.835 10.9474 22.6842 10.9346 22.5402 10.8932C22.3962 10.8519 22.2618 10.7829 22.1447 10.6902L21.1459 9.89952V18.8447C21.1459 19.4439 20.9053 20.0185 20.4772 20.4422C20.049 20.8659 19.4683 21.1039 18.8628 21.1039H14.2968V15.456C14.2968 14.8568 14.0562 14.2822 13.6281 13.8585C13.1999 13.4348 12.6192 13.1968 12.0137 13.1968C11.4082 13.1968 10.8275 13.4348 10.3994 13.8585C9.97124 14.2822 9.73071 14.8568 9.73071 15.456V21.1039H5.16464C4.55914 21.1039 3.97844 20.8659 3.55029 20.4422C3.12214 20.0185 2.88161 19.4439 2.88161 18.8447V9.89839L1.88278 10.6891C1.7665 10.7874 1.63145 10.8615 1.48566 10.9071C1.33987 10.9527 1.1863 10.9689 1.03408 10.9546C0.881848 10.9404 0.734063 10.896 0.599494 10.8242C0.464924 10.7524 0.346312 10.6545 0.250699 10.5364C0.155086 10.4183 0.0844206 10.2825 0.0428971 10.1368C0.00137356 9.99121 -0.0101615 9.83881 0.00897658 9.68869C0.0281146 9.53858 0.0775356 9.39379 0.154306 9.26294C0.231077 9.13208 0.333632 9.01783 0.455885 8.92694L3.29484 6.67907L10.5275 0.544285Z" fill="#BEBEBE"/>
</svg>
