<svg width="16" height="16" viewBox="0 0 16 16" fill="none" xmlns="http://www.w3.org/2000/svg">
<path fill-rule="evenodd" clip-rule="evenodd" d="M4.85788 10.1769C4.70154 9.97817 4.72739 9.68026 4.91561 9.51147C5.10383 9.34267 5.38314 9.36691 5.53947 9.5656L6.37152 10.6231L6.81757 11.19L7.64962 12.2475C7.80596 12.4462 7.78011 12.7441 7.59189 12.9129C7.40367 13.0817 7.12436 13.0575 6.96803 12.8588L4.85788 10.1769ZM8.43895 9.73593C7.91992 10.2014 7.84864 11.0229 8.27975 11.5708C8.71085 12.1187 8.63957 12.9403 8.12054 13.4057L7.28406 14.1559C7.13576 14.2889 6.9157 14.2698 6.79252 14.1133C6.66935 13.9567 6.44928 13.9376 6.30099 14.0706L5.88791 14.4411C5.51147 14.7787 4.95285 14.7302 4.64019 14.3328L3.09616 12.3704C2.7835 11.973 2.83519 11.3772 3.21163 11.0396L3.62471 10.6692C3.773 10.5362 3.79337 10.3015 3.6702 10.1449C3.54702 9.98836 3.56739 9.75364 3.71568 9.62065L4.55216 8.87048C5.0712 8.40501 5.84143 8.47184 6.27253 9.01975C6.70364 9.56766 7.47387 9.63449 7.99291 9.16902L8.8397 8.4096C9.35873 7.94412 9.43001 7.12261 8.99891 6.5747C8.56781 6.02678 8.63908 5.20527 9.15812 4.73979L9.9946 3.98962C10.1429 3.85663 10.363 3.87573 10.4861 4.03227C10.6093 4.18882 10.8294 4.20791 10.9777 4.07492L11.3907 3.70446C11.7672 3.36687 12.3258 3.41534 12.6385 3.81272L14.1825 5.77511C14.4952 6.17249 14.4435 6.76831 14.067 7.1059L13.6539 7.47636C13.5057 7.60935 13.4853 7.84407 13.6085 8.00061C13.7316 8.15716 13.7113 8.39188 13.563 8.52487L12.7265 9.27504C12.2075 9.74052 11.4372 9.67369 11.0061 9.12577C10.575 8.57786 9.80478 8.51103 9.28575 8.9765L8.43895 9.73593ZM10.9071 7.52242L11.7392 8.57993C11.8955 8.77862 12.1748 8.80285 12.363 8.63406C12.5513 8.46526 12.5771 8.16736 12.4208 7.96866L10.3106 5.28675C10.1543 5.08806 9.87498 5.06383 9.68676 5.23262C9.49855 5.40142 9.4727 5.69932 9.62903 5.89801L10.4611 6.95552L10.9071 7.52242ZM4.62233 11.355C4.466 11.1563 4.18669 11.1321 3.99847 11.3009C3.81025 11.4697 3.7844 11.7676 3.94074 11.9663L5.1588 13.5144C5.31513 13.7131 5.59444 13.7373 5.78266 13.5685C5.97087 13.3997 5.99672 13.1018 5.84039 12.9031L4.62233 11.355ZM12.6563 6.79049C12.8127 6.98918 13.092 7.01342 13.2802 6.84462C13.4684 6.67583 13.4943 6.37792 13.3379 6.17923L12.1199 4.63113C11.9635 4.43244 11.6842 4.4082 11.496 4.577C11.3078 4.7458 11.2819 5.0437 11.4383 5.24239L12.6563 6.79049Z" fill="black" fill-opacity="0.75"/>
</svg>
