<svg width="24" height="24" viewBox="0 0 24 24" fill="none" xmlns="http://www.w3.org/2000/svg">
<mask id="path-2-inside-1_212_10117" fill="white">
<path fill-rule="evenodd" clip-rule="evenodd" d="M5.08345 13.5851C4.79408 13.2317 4.8388 12.702 5.18331 12.4021C5.52783 12.1021 6.04169 12.1455 6.33105 12.499L7.84883 14.3528L8.66552 15.3504L10.1833 17.2043C10.4727 17.5577 10.428 18.0874 10.0834 18.3873C9.73892 18.6872 9.22505 18.6439 8.93569 18.2904L5.08345 13.5851ZM11.6147 12.7828C10.675 13.601 10.553 15.0458 11.3423 16.0099C12.1317 16.9741 12.0097 18.4189 11.0699 19.237L9.51489 20.5908C9.24638 20.8246 8.84589 20.7908 8.62037 20.5153C8.39484 20.2398 7.99435 20.206 7.72585 20.4398L6.96441 21.1027C6.27538 21.7026 5.24766 21.6158 4.66893 20.9089L1.86456 17.4835C1.28584 16.7766 1.37526 15.7173 2.06429 15.1174L2.82572 14.4546C3.09423 14.2208 3.12908 13.808 2.90356 13.5325C2.67804 13.2571 2.71288 12.8443 2.98139 12.6105L4.53642 11.2567C5.4762 10.4385 6.87791 10.5569 7.66724 11.521C8.45657 12.4851 9.85828 12.6034 10.7981 11.7853L12.3853 10.4035C13.325 9.58534 13.447 8.14052 12.6577 7.17639C11.8683 6.21227 11.9903 4.76745 12.9301 3.94929L14.4851 2.5955C14.7536 2.36174 15.1541 2.39555 15.3796 2.67102C15.6052 2.94648 16.0056 2.98029 16.2742 2.74653L17.0356 2.08364C17.7246 1.48377 18.7523 1.57053 19.3311 2.27741L22.1354 5.7028C22.7142 6.40969 22.6247 7.46902 21.9357 8.06888L21.1743 8.73177C20.9058 8.96553 20.8709 9.37834 21.0964 9.6538C21.322 9.92927 21.2871 10.3421 21.0186 10.5758L19.4636 11.9296C18.5238 12.7478 17.1221 12.6295 16.3328 11.6653C15.5434 10.7012 14.1417 10.5829 13.2019 11.401L11.6147 12.7828ZM16.1512 8.83348L17.6689 10.6874C17.9583 11.0408 18.4722 11.0842 18.8167 10.7843C19.1612 10.4843 19.2059 9.95466 18.9166 9.60122L15.0643 4.8959C14.7749 4.54246 14.2611 4.49908 13.9166 4.79901C13.572 5.09894 13.5273 5.62861 13.8167 5.98205L15.3345 7.83594L16.1512 8.83348ZM4.65253 15.6688C4.36316 15.3154 3.8493 15.272 3.50478 15.5719C3.16027 15.8718 3.11556 16.4015 3.40492 16.7549L5.62379 19.4652C5.91315 19.8186 6.42701 19.862 6.77153 19.5621C7.11605 19.2621 7.16076 18.7325 6.8714 18.379L4.65253 15.6688ZM19.3475 7.51753C19.6368 7.87097 20.1507 7.91435 20.4952 7.61442C20.8397 7.31448 20.8844 6.78482 20.5951 6.43138L18.3762 3.72114C18.0868 3.3677 17.573 3.32432 17.2285 3.62425C16.8839 3.92418 16.8392 4.45385 17.1286 4.80729L19.3475 7.51753Z"/>
</mask>
<path fill-rule="evenodd" clip-rule="evenodd" d="M5.08345 13.5851C4.79408 13.2317 4.8388 12.702 5.18331 12.4021C5.52783 12.1021 6.04169 12.1455 6.33105 12.499L7.84883 14.3528L8.66552 15.3504L10.1833 17.2043C10.4727 17.5577 10.428 18.0874 10.0834 18.3873C9.73892 18.6872 9.22505 18.6439 8.93569 18.2904L5.08345 13.5851ZM11.6147 12.7828C10.675 13.601 10.553 15.0458 11.3423 16.0099C12.1317 16.9741 12.0097 18.4189 11.0699 19.237L9.51489 20.5908C9.24638 20.8246 8.84589 20.7908 8.62037 20.5153C8.39484 20.2398 7.99435 20.206 7.72585 20.4398L6.96441 21.1027C6.27538 21.7026 5.24766 21.6158 4.66893 20.9089L1.86456 17.4835C1.28584 16.7766 1.37526 15.7173 2.06429 15.1174L2.82572 14.4546C3.09423 14.2208 3.12908 13.808 2.90356 13.5325C2.67804 13.2571 2.71288 12.8443 2.98139 12.6105L4.53642 11.2567C5.4762 10.4385 6.87791 10.5569 7.66724 11.521C8.45657 12.4851 9.85828 12.6034 10.7981 11.7853L12.3853 10.4035C13.325 9.58534 13.447 8.14052 12.6577 7.17639C11.8683 6.21227 11.9903 4.76745 12.9301 3.94929L14.4851 2.5955C14.7536 2.36174 15.1541 2.39555 15.3796 2.67102C15.6052 2.94648 16.0056 2.98029 16.2742 2.74653L17.0356 2.08364C17.7246 1.48377 18.7523 1.57053 19.3311 2.27741L22.1354 5.7028C22.7142 6.40969 22.6247 7.46902 21.9357 8.06888L21.1743 8.73177C20.9058 8.96553 20.8709 9.37834 21.0964 9.6538C21.322 9.92927 21.2871 10.3421 21.0186 10.5758L19.4636 11.9296C18.5238 12.7478 17.1221 12.6295 16.3328 11.6653C15.5434 10.7012 14.1417 10.5829 13.2019 11.401L11.6147 12.7828ZM16.1512 8.83348L17.6689 10.6874C17.9583 11.0408 18.4722 11.0842 18.8167 10.7843C19.1612 10.4843 19.2059 9.95466 18.9166 9.60122L15.0643 4.8959C14.7749 4.54246 14.2611 4.49908 13.9166 4.79901C13.572 5.09894 13.5273 5.62861 13.8167 5.98205L15.3345 7.83594L16.1512 8.83348ZM4.65253 15.6688C4.36316 15.3154 3.8493 15.272 3.50478 15.5719C3.16027 15.8718 3.11556 16.4015 3.40492 16.7549L5.62379 19.4652C5.91315 19.8186 6.42701 19.862 6.77153 19.5621C7.11605 19.2621 7.16076 18.7325 6.8714 18.379L4.65253 15.6688ZM19.3475 7.51753C19.6368 7.87097 20.1507 7.91435 20.4952 7.61442C20.8397 7.31448 20.8844 6.78482 20.5951 6.43138L18.3762 3.72114C18.0868 3.3677 17.573 3.32432 17.2285 3.62425C16.8839 3.92418 16.8392 4.45385 17.1286 4.80729L19.3475 7.51753Z" fill="#24A22F"/>
<path d="M-730.546 654.014L-729.028 655.868L744.725 -627.162L743.208 -629.016L-730.546 654.014ZM-729.028 655.868L-728.211 656.866L745.542 -626.165L744.725 -627.162L-729.028 655.868ZM-728.211 656.866L-726.693 658.719L747.06 -624.311L745.542 -626.165L-728.211 656.866ZM745.812 -623.225L741.96 -627.93L-731.793 655.1L-727.941 659.806L745.812 -623.225ZM-607.838 -736.727L-609.393 -735.373L628.423 776.555L629.978 775.201L-607.838 -736.727ZM-611.182 -735.524L-611.943 -734.862L625.872 777.067L626.634 776.404L-611.182 -735.524ZM741.546 -620.606L738.741 -624.032L-735.012 658.999L-732.208 662.424L741.546 -620.606ZM620.972 771.082L621.734 770.419L-616.082 -741.51L-616.844 -740.847L620.972 771.082ZM621.889 768.575L623.444 767.221L-614.371 -744.708L-615.926 -743.354L621.889 768.575ZM629.706 767.75L631.293 766.368L-606.523 -745.561L-608.11 -744.179L629.706 767.75ZM631.838 759.914L633.393 758.56L-604.423 -753.369L-605.978 -752.015L631.838 759.914ZM635.182 758.711L635.943 758.048L-601.872 -753.881L-602.634 -753.218L635.182 758.711ZM-717.546 643.793L-714.741 647.218L759.012 -635.812L756.208 -639.238L-717.546 643.793ZM-596.972 -747.895L-597.734 -747.233L640.082 764.696L640.844 764.033L-596.972 -747.895ZM-597.889 -745.388L-599.444 -744.035L638.371 767.894L639.926 766.54L-597.889 -745.388ZM-605.706 -744.563L-607.293 -743.181L630.523 768.747L632.11 767.365L-605.706 -744.563ZM-720.725 650.349L-719.208 652.203L754.546 -630.828L753.028 -632.682L-720.725 650.349ZM755.793 -631.914L751.941 -636.619L-721.812 646.411L-717.96 651.116L755.793 -631.914ZM-723.06 647.497L-721.542 649.351L752.211 -633.679L750.693 -635.533L-723.06 647.497ZM-721.542 649.351L-720.725 650.349L753.028 -632.682L752.211 -633.679L-721.542 649.351ZM-733.472 658.27L-731.253 660.98L742.5 -622.05L740.282 -624.76L-733.472 658.27ZM743.748 -623.136L741.529 -625.846L-732.224 657.184L-730.005 659.894L743.748 -623.136ZM757.472 -635.084L755.253 -637.794L-718.5 645.236L-716.282 647.947L757.472 -635.084ZM-719.748 646.323L-717.529 649.033L756.224 -633.998L754.005 -636.708L-719.748 646.323ZM-601.679 -752.34C-1008.99 -397.741 -1061.85 228.461 -719.748 646.323L754.005 -636.708C1095.53 -219.554 1042.76 405.59 636.136 759.589L-601.679 -752.34ZM755.253 -637.794C413.15 -1055.66 -194.369 -1106.94 -601.679 -752.34L636.136 759.589C229.515 1113.59 -376.976 1062.39 -718.5 645.236L755.253 -637.794ZM639.403 763.579C1046.71 408.98 1099.57 -217.223 757.472 -635.084L-716.282 647.947C-1057.81 230.792 -1005.03 -394.351 -598.413 -748.35L639.403 763.579ZM-598.413 -748.35C-191.791 -1102.35 414.7 -1051.15 756.224 -633.998L-717.529 649.033C-375.426 1066.89 232.093 1118.18 639.403 763.579L-598.413 -748.35ZM625.679 775.526C1032.99 420.928 1085.85 -205.275 743.748 -623.136L-730.005 659.894C-1071.53 242.74 -1018.76 -382.403 -612.136 -736.402L625.679 775.526ZM-731.253 660.98C-389.15 1078.84 218.369 1130.13 625.679 775.526L-612.136 -736.402C-205.515 -1090.4 400.976 -1039.2 742.5 -622.05L-731.253 660.98ZM-615.403 -740.392C-1022.71 -385.794 -1075.57 240.409 -733.472 658.27L740.282 -624.76C1081.81 -207.606 1029.03 417.537 622.413 771.536L-615.403 -740.392ZM622.413 771.536C215.792 1125.54 -390.7 1074.34 -732.224 657.184L741.529 -625.846C399.426 -1043.71 -208.093 -1094.99 -615.403 -740.392L622.413 771.536ZM-604.991 -751.165C-1012.3 -396.567 -1065.16 229.636 -723.06 647.497L750.693 -635.533C1092.22 -218.379 1039.45 406.764 632.824 760.763L-604.991 -751.165ZM751.941 -636.619C409.839 -1054.48 -197.68 -1105.77 -604.991 -751.165L632.824 760.763C226.202 1114.76 -380.289 1063.56 -721.812 646.411L751.941 -636.619ZM637.724 766.749C1045.03 412.15 1097.9 -214.053 755.793 -631.914L-717.96 651.116C-1059.48 233.962 -1006.71 -391.181 -600.091 -745.18L637.724 766.749ZM-719.208 652.203C-377.104 1070.06 230.415 1121.35 637.724 766.749L-600.091 -745.18C-193.471 -1099.18 413.021 -1047.98 754.546 -630.828L-719.208 652.203ZM753.209 -629.85C410.607 -1048.32 -197.8 -1099.68 -605.706 -744.563L632.11 767.365C226.084 1120.85 -379.52 1069.72 -720.544 653.181L753.209 -629.85ZM-597.734 -747.233C-1004.97 -392.7 -1057.82 233.385 -715.78 651.169L757.973 -631.861C1099.56 -214.629 1046.78 410.631 640.082 764.696L-597.734 -747.233ZM-714.741 647.218C-1055.97 230.418 -1003.25 -394.195 -596.972 -747.895L640.844 764.033C1048.5 409.133 1101.4 -217.599 759.012 -635.812L-714.741 647.218ZM635.943 758.048C229.667 1111.75 -376.31 1060.59 -717.546 643.793L756.208 -639.238C413.815 -1057.45 -194.218 -1108.78 -601.872 -753.881L635.943 758.048ZM-721.497 644.186C-379.458 1061.97 227.948 1113.24 635.182 758.711L-602.634 -753.218C-195.937 -1107.28 410.668 -1056.08 752.256 -638.844L-721.497 644.186ZM633.393 758.56C226.697 1112.62 -379.908 1061.42 -721.497 644.186L752.256 -638.844C410.217 -1056.63 -197.189 -1107.9 -604.423 -753.369L633.393 758.56ZM749.534 -634.339C1090.56 -217.796 1037.86 406.432 631.838 759.914L-605.978 -752.015C-1013.88 -396.897 -1066.82 230.22 -724.219 648.692L749.534 -634.339ZM631.293 766.368C1039.2 411.251 1092.14 -215.867 749.534 -634.339L-724.219 648.692C-1065.24 232.148 -1012.55 -392.08 -606.523 -745.561L631.293 766.368ZM-729.209 653.036C-386.607 1071.51 221.8 1122.87 629.706 767.75L-608.11 -744.179C-202.084 -1097.66 403.52 -1046.54 744.544 -629.994L-729.209 653.036ZM623.444 767.221C217.418 1120.7 -388.186 1069.58 -729.209 653.036L744.544 -629.994C401.942 -1048.47 -206.465 -1099.83 -614.371 -744.708L623.444 767.221ZM739.78 -627.983C1081.37 -210.751 1028.59 414.51 621.889 768.575L-615.926 -743.354C-1023.16 -388.821 -1076.01 237.265 -733.973 655.048L739.78 -627.983ZM-611.943 -734.862C-205.667 -1088.56 400.311 -1037.41 741.546 -620.606L-732.208 662.424C-389.815 1080.64 218.218 1131.97 625.872 777.067L-611.943 -734.862ZM745.497 -621C403.458 -1038.78 -203.948 -1090.06 -611.182 -735.524L626.634 776.404C219.937 1130.47 -386.668 1079.26 -728.256 662.03L745.497 -621ZM-609.393 -735.373C-202.697 -1089.44 403.908 -1038.23 745.497 -621L-728.256 662.03C-386.217 1079.81 221.189 1131.09 628.423 776.555L-609.393 -735.373ZM-725.534 657.525C-1066.56 240.982 -1013.86 -383.246 -607.838 -736.727L629.978 775.201C1037.88 420.084 1090.82 -207.034 748.219 -625.505L-725.534 657.525ZM-726.693 658.719C-1068.22 241.565 -1015.44 -383.578 -608.824 -737.577L628.991 774.352C1036.3 419.753 1089.16 -206.449 747.06 -624.311L-726.693 658.719ZM748.219 -625.505C1089.24 -208.961 1036.55 415.267 630.523 768.747L-607.293 -743.181C-1015.2 -388.065 -1068.14 239.053 -725.534 657.525L748.219 -625.505ZM621.734 770.419C1028.97 415.887 1081.82 -210.199 739.78 -627.983L-733.973 655.048C-1075.56 237.815 -1022.78 -387.445 -616.082 -741.51L621.734 770.419ZM-599.444 -744.035C-193.418 -1097.52 412.186 -1046.39 753.209 -629.85L-720.544 653.181C-377.942 1071.65 230.465 1123.01 638.371 767.894L-599.444 -744.035ZM624.091 768.366C217.47 1122.37 -389.021 1071.17 -730.546 654.014L743.208 -629.016C401.105 -1046.88 -206.415 -1098.16 -613.725 -743.562L624.091 768.366ZM-608.824 -737.577C-202.203 -1091.58 404.288 -1040.38 745.812 -623.225L-727.941 659.806C-385.838 1077.67 221.681 1128.95 628.991 774.352L-608.824 -737.577ZM738.741 -624.032C1079.97 -207.232 1027.25 417.382 620.972 771.082L-616.844 -740.847C-1024.5 -385.947 -1077.4 240.785 -735.012 658.999L738.741 -624.032ZM-715.78 651.169C-1057.37 233.937 -1004.59 -391.323 -597.889 -745.388L639.926 766.54C1047.16 412.007 1100.01 -214.078 757.973 -631.861L-715.78 651.169ZM-613.725 -743.562C-1021.04 -388.963 -1073.9 237.24 -731.793 655.1L741.96 -627.93C1083.48 -210.777 1030.71 414.366 624.091 768.366L-613.725 -743.562Z" fill="#24A22F" mask="url(#path-2-inside-1_212_10117)"/>
</svg>
