<svg width="20" height="20" viewBox="0 0 20 20" fill="none" xmlns="http://www.w3.org/2000/svg">
<g clip-path="url(#clip0_418_6786)">
<path d="M10.0003 1.66675C14.6028 1.66675 18.3337 5.39758 18.3337 10.0001C18.3337 14.6026 14.6028 18.3334 10.0003 18.3334C5.39783 18.3334 1.66699 14.6026 1.66699 10.0001C1.66699 5.39758 5.39783 1.66675 10.0003 1.66675ZM10.0003 3.33341C8.23222 3.33341 6.53652 4.03579 5.28628 5.28604C4.03604 6.53628 3.33366 8.23197 3.33366 10.0001C3.33366 11.7682 4.03604 13.4639 5.28628 14.7141C6.53652 15.9644 8.23222 16.6667 10.0003 16.6667C11.7684 16.6667 13.4641 15.9644 14.7144 14.7141C15.9646 13.4639 16.667 11.7682 16.667 10.0001C16.667 8.23197 15.9646 6.53628 14.7144 5.28604C13.4641 4.03579 11.7684 3.33341 10.0003 3.33341ZM10.0003 5.00008C10.2044 5.00011 10.4014 5.07504 10.554 5.21068C10.7065 5.34631 10.8039 5.53321 10.8278 5.73591L10.8337 5.83341V9.65508L13.0895 11.9109C13.2389 12.0609 13.3257 12.2621 13.3322 12.4737C13.3386 12.6854 13.2643 12.8915 13.1243 13.0503C12.9843 13.2091 12.789 13.3087 12.5783 13.3287C12.3675 13.3488 12.157 13.2879 11.9895 13.1584L11.9112 13.0892L9.41116 10.5892C9.28164 10.4596 9.19846 10.2909 9.17449 10.1092L9.16699 10.0001V5.83341C9.16699 5.6124 9.25479 5.40044 9.41107 5.24416C9.56735 5.08788 9.77931 5.00008 10.0003 5.00008Z" fill="#24A22F"/>
</g>
<defs>
<clipPath id="clip0_418_6786">
<rect width="20" height="20" fill="white"/>
</clipPath>
</defs>
</svg>
