<svg width="13" height="13" viewBox="0 0 13 13" fill="none" xmlns="http://www.w3.org/2000/svg">
<path d="M6.5 1.21875C5.45547 1.21875 4.43439 1.52849 3.5659 2.1088C2.6974 2.68911 2.02049 3.51393 1.62076 4.47895C1.22104 5.44397 1.11645 6.50586 1.32023 7.53032C1.52401 8.55478 2.027 9.49581 2.76559 10.2344C3.50419 10.973 4.44522 11.476 5.46968 11.6798C6.49414 11.8835 7.55603 11.779 8.52105 11.3792C9.48607 10.9795 10.3109 10.3026 10.8912 9.4341C11.4715 8.56561 11.7813 7.54453 11.7813 6.5C11.7798 5.09978 11.2229 3.75733 10.2328 2.76723C9.24267 1.77712 7.90022 1.22023 6.5 1.21875ZM6.29688 3.65625C6.4174 3.65625 6.53522 3.69199 6.63543 3.75895C6.73564 3.82591 6.81374 3.92108 6.85987 4.03243C6.90599 4.14378 6.91806 4.2663 6.89454 4.38451C6.87103 4.50272 6.81299 4.6113 6.72777 4.69652C6.64255 4.78174 6.53397 4.83978 6.41576 4.86329C6.29755 4.8868 6.17503 4.87474 6.06368 4.82861C5.95233 4.78249 5.85716 4.70439 5.7902 4.60418C5.72324 4.50396 5.6875 4.38615 5.6875 4.26562C5.6875 4.10401 5.7517 3.94901 5.86598 3.83473C5.98026 3.72045 6.13526 3.65625 6.29688 3.65625ZM6.90625 9.34375C6.69076 9.34375 6.4841 9.25815 6.33173 9.10577C6.17935 8.9534 6.09375 8.74674 6.09375 8.53125V6.5C5.98601 6.5 5.88268 6.4572 5.80649 6.38101C5.7303 6.30482 5.6875 6.20149 5.6875 6.09375C5.6875 5.98601 5.7303 5.88267 5.80649 5.80649C5.88268 5.7303 5.98601 5.6875 6.09375 5.6875C6.30924 5.6875 6.5159 5.7731 6.66828 5.92548C6.82065 6.07785 6.90625 6.28451 6.90625 6.5V8.53125C7.014 8.53125 7.11733 8.57405 7.19351 8.65024C7.2697 8.72642 7.3125 8.82976 7.3125 8.9375C7.3125 9.04524 7.2697 9.14858 7.19351 9.22476C7.11733 9.30095 7.014 9.34375 6.90625 9.34375Z" fill="#5F6060"/>
</svg>
