<svg width="13" height="12" viewBox="0 0 13 12" fill="none" xmlns="http://www.w3.org/2000/svg">
<g clip-path="url(#clip0_350_12409)">
<path d="M0.555399 11.9999C0.449354 11.9999 0.345853 11.9976 0.244894 11.9939C0.179137 11.9915 0.116883 11.9642 0.0712152 11.9178C0.0255472 11.8713 2.07454e-05 11.8093 0 11.7448L0 7.12463C-1.01724e-07 7.08234 0.01097 7.04074 0.0318786 7.00375C0.0527873 6.96676 0.0829474 6.93559 0.119523 6.91317C0.764437 6.51793 1.52175 6.38353 2.37062 6.5112C3.07275 6.61743 3.82269 6.90769 4.53932 7.35055C4.56757 7.36802 4.59204 7.39078 4.61132 7.41752C4.63061 7.44426 4.64433 7.47447 4.65171 7.50641C4.65909 7.53835 4.65998 7.57141 4.65433 7.60369C4.64868 7.63597 4.63661 7.66684 4.61879 7.69455C4.60097 7.72225 4.57777 7.74624 4.55049 7.76515C4.52322 7.78406 4.49242 7.79751 4.45984 7.80475C4.42727 7.81199 4.39356 7.81286 4.36064 7.80732C4.32772 7.80178 4.29623 7.78994 4.26798 7.77247C3.59967 7.35953 1.92279 6.50347 0.508607 7.26726V11.5007H0.534038C1.68603 11.5007 2.43165 11.2062 2.99595 10.5381C3.03857 10.4874 3.09987 10.4553 3.16654 10.4486C3.2332 10.442 3.29984 10.4614 3.35198 10.5027C4.66189 11.5351 5.84619 11.5433 8.23613 11.3164C8.54789 11.2865 8.84718 11.1811 9.10712 11.0097L9.11424 11.0052L11.9835 9.24096C12.2007 9.10817 12.3625 8.90401 12.4402 8.66495C12.5179 8.4259 12.5064 8.16754 12.4077 7.93605L9.67473 1.48433L7.46457 0.521301L5.93061 1.1659L6.54094 2.55933L7.92156 2.10799C7.95513 2.09702 7.99066 2.09304 8.02589 2.09631C8.06111 2.09958 8.09525 2.11002 8.12613 2.12697C8.15701 2.14391 8.18394 2.16699 8.2052 2.19472C8.22646 2.22245 8.24159 2.25423 8.24961 2.28802L9.05092 5.66412C9.06081 5.70525 9.05976 5.74819 9.04787 5.7888L8.54714 7.50341L9.27267 8.45098C9.29271 8.47718 9.30729 8.50699 9.31558 8.53871C9.32386 8.57043 9.3257 8.60345 9.32098 8.63586C9.31625 8.66828 9.30507 8.69947 9.28805 8.72765C9.27104 8.75582 9.24853 8.78044 9.22181 8.80009C9.1951 8.81973 9.16469 8.83403 9.13234 8.84216C9.09999 8.85028 9.06633 8.85208 9.03327 8.84745C9.00021 8.84282 8.9684 8.83185 8.93966 8.81517C8.91093 8.79848 8.88582 8.77641 8.86579 8.75021L8.06448 7.7029C8.0409 7.67212 8.02491 7.6364 8.01776 7.59854C8.01062 7.56069 8.0125 7.52173 8.02328 7.48471L8.53951 5.71424L7.81628 2.66805L6.47838 3.10543C6.4179 3.12519 6.35206 3.12197 6.29389 3.09638C6.23573 3.07079 6.18948 3.02472 6.16432 2.96728L5.36301 1.13323C5.33644 1.07245 5.33558 1.00382 5.36062 0.942418C5.38566 0.881019 5.43454 0.831884 5.49652 0.805822L7.36641 0.0200854C7.3985 0.00635481 7.43313 -0.000732422 7.46813 -0.000732422C7.50314 -0.000732422 7.53777 0.00635481 7.56986 0.0200854L9.97379 1.0674C10.0333 1.09329 10.0805 1.14059 10.1055 1.19956L12.8774 7.74305C13.0229 8.0836 13.04 8.4638 12.9257 8.8156C12.8114 9.1674 12.5732 9.46783 12.2536 9.66313L9.38787 11.4256C9.05857 11.642 8.67974 11.7751 8.28521 11.8129C6.12058 12.0183 4.68758 12.0917 3.22457 11.0361C2.42987 11.8445 1.42181 11.9999 0.555399 11.9999Z" fill="black"/>
<path d="M6.30303 10.8745C5.2881 10.8745 4.46518 10.6376 3.61428 9.81047C3.58991 9.78757 3.57044 9.76013 3.55699 9.72977C3.54355 9.69941 3.53641 9.66673 3.53598 9.63363C3.53555 9.60053 3.54185 9.56768 3.5545 9.53699C3.56716 9.50631 3.58591 9.4784 3.60968 9.45489C3.63345 9.43139 3.66175 9.41276 3.69294 9.40009C3.72412 9.38743 3.75757 9.38097 3.79133 9.38111C3.82508 9.38125 3.85847 9.38798 3.88955 9.4009C3.92063 9.41382 3.94877 9.43268 3.97234 9.45638C5.01956 10.474 5.91878 10.4823 7.87183 10.2531C7.93643 10.2495 8 10.2702 8.04959 10.3109C8.09918 10.3517 8.13106 10.4094 8.13875 10.4724C8.14643 10.5354 8.12933 10.5989 8.09094 10.65C8.05254 10.7011 7.99574 10.7359 7.9321 10.7473C7.32813 10.8191 6.79307 10.8745 6.30303 10.8745ZM3.72744 8.32852C3.67438 8.32862 3.62263 8.31244 3.57941 8.28226C3.5362 8.25207 3.5037 8.20939 3.48646 8.16019C3.46922 8.11098 3.4681 8.05773 3.48327 8.00787C3.49844 7.95802 3.52913 7.91406 3.57105 7.88217L4.73169 6.99693C5.1425 6.68191 5.63406 6.48423 6.15216 6.42571C6.67026 6.36719 7.19477 6.4501 7.66788 6.66528L8.46283 7.02511C8.49315 7.03883 8.52042 7.05828 8.54308 7.08233C8.56574 7.10639 8.58335 7.13458 8.5949 7.16531C8.60644 7.19604 8.61171 7.22869 8.61038 7.26141C8.60906 7.29414 8.60118 7.32628 8.58718 7.35601C8.57319 7.38575 8.55336 7.41249 8.52883 7.43471C8.5043 7.45693 8.47554 7.47419 8.44421 7.48552C8.41287 7.49684 8.37957 7.502 8.3462 7.5007C8.31283 7.4994 8.28005 7.49167 8.24972 7.47795L7.45477 7.11788C7.06637 6.94119 6.63576 6.87305 6.2104 6.92097C5.78503 6.96888 5.3814 7.13099 5.04397 7.38943L3.88333 8.27466C3.83893 8.30913 3.78407 8.32809 3.72744 8.32852Z" fill="black"/>
</g>
<defs>
<clipPath id="clip0_350_12409">
<rect width="13" height="12" fill="white"/>
</clipPath>
</defs>
</svg>
