<svg width="22" height="20" viewBox="0 0 22 20" fill="none" xmlns="http://www.w3.org/2000/svg">
<path d="M14.4375 1.66675C14.4375 1.50099 14.3651 1.34202 14.2361 1.22481C14.1072 1.1076 13.9323 1.04175 13.75 1.04175C13.5677 1.04175 13.3928 1.1076 13.2639 1.22481C13.1349 1.34202 13.0625 1.50099 13.0625 1.66675V18.3334C13.0625 18.4992 13.1349 18.6581 13.2639 18.7754C13.3928 18.8926 13.5677 18.9584 13.75 18.9584C13.9323 18.9584 14.1072 18.8926 14.2361 18.7754C14.3651 18.6581 14.4375 18.4992 14.4375 18.3334V16.6617C16.8538 16.6392 18.1995 16.5026 19.0923 15.6901C20.1667 14.7142 20.1667 13.1426 20.1667 10.0001C20.1667 6.85758 20.1667 5.28591 19.0923 4.31008C18.1995 3.49758 16.8538 3.36091 14.4375 3.33841V1.66675Z" fill="#7A7F85"/>
<path fill-rule="evenodd" clip-rule="evenodd" d="M2.90734 15.6899C3.98076 16.6666 5.70959 16.6666 9.16634 16.6666H11.9163V3.33325H9.16634C5.70959 3.33325 3.98076 3.33325 2.90734 4.30992C1.83301 5.28575 1.83301 6.85742 1.83301 9.99992C1.83301 13.1424 1.83301 14.7141 2.90734 15.6899ZM11.9163 9.99992C11.9163 9.7789 11.8198 9.56694 11.6479 9.41066C11.4759 9.25438 11.2428 9.16658 10.9997 9.16658C10.7566 9.16658 10.5234 9.25438 10.3515 9.41066C10.1796 9.56694 10.083 9.7789 10.083 9.99992C10.083 10.2209 10.1796 10.4329 10.3515 10.5892C10.5234 10.7455 10.7566 10.8333 10.9997 10.8333C11.2428 10.8333 11.4759 10.7455 11.6479 10.5892C11.8198 10.4329 11.9163 10.2209 11.9163 9.99992ZM8.24967 9.99992C8.24967 10.2209 8.1531 10.4329 7.98119 10.5892C7.80928 10.7455 7.57612 10.8333 7.33301 10.8333C7.08989 10.8333 6.85673 10.7455 6.68483 10.5892C6.51292 10.4329 6.41634 10.2209 6.41634 9.99992C6.41634 9.7789 6.51292 9.56694 6.68483 9.41066C6.85673 9.25438 7.08989 9.16658 7.33301 9.16658C7.57612 9.16658 7.80928 9.25438 7.98119 9.41066C8.1531 9.56694 8.24967 9.7789 8.24967 9.99992Z" fill="#7A7F85"/>
</svg>
